<?xml version="1.0" encoding="UTF-8"?>
<svg width="769px" height="500px" viewBox="0 0 769 500" version="1.1" xmlns="http://www.w3.org/2000/svg" xmlns:xlink="http://www.w3.org/1999/xlink">
    <!-- Generator: Sketch 44.1 (41455) - http://www.bohemiancoding.com/sketch -->
    <title>logo</title>
    <desc>Created with Sketch.</desc>
    <defs></defs>
    <g id="Page-1" stroke="none" stroke-width="1" fill="none" fill-rule="evenodd">
        <g id="logo" transform="translate(12.000000, 12.000000)">
            <path d="M180.735992,186.921997 C214.384994,128.574005 254.016998,79.197998 291.655975,46.442001 C337.005981,6.975998 380.162994,-8.480999 403.430999,4.936996 C427.678985,18.919998 436.472991,66.751007 423.497985,129.733017 C413.687987,177.351013 390.263976,233.945038 358.32199,289.334015 C325.572997,346.121979 288.07199,396.153015 250.944976,428.605988 C203.96527,469.674012 158.545013,484.534974 134.76007,470.81897 C111.68106,457.508972 102.854064,413.898011 113.92607,355.585999 C123.281112,306.31601 146.758086,245.841004 180.735991,186.921998 L180.735992,186.921997 Z" id="svg_2" stroke="#FF87D6" stroke-width="24"></path>
            <path d="M180.820999,289.481995 C147.074997,231.190003 124.089996,172.194992 114.509003,123.22699 C102.964997,64.227989 111.126999,19.117989 134.373001,5.660988 C158.597,-8.36301 204.427994,7.904991 252.513,50.60099 C288.868988,82.880996 326.201019,131.437973 358.235992,186.773987 C391.079986,243.506989 415.696991,300.983002 425.272003,349.355988 C437.389007,410.569001 427.581024,457.339966 403.819,471.096009 C380.762024,484.44397 338.570007,470.312012 293.580017,431.596986 C255.566986,398.885987 214.897995,348.343995 180.820999,289.481996 L180.820999,289.481995 Z" id="svg_3" stroke="#FF87D6" stroke-width="24"></path>
            <path d="M269.528992,135.628006 C336.88498,135.628006 399.457001,145.293015 446.635987,161.535004 C503.479981,181.104004 538.429993,210.768006 538.429993,237.628022 C538.429993,265.619019 501.388977,297.131013 440.346985,317.355988 C394.195984,332.647004 333.467987,340.627991 269.528992,340.627991 C203.974991,340.627991 141.898987,333.135987 95.238999,317.187012 C36.193001,297.005005 0.628001,265.084015 0.628001,237.628022 C0.628001,210.986024 33.998002,181.552018 90.043,162.011994 C137.397996,145.503007 201.515,135.628007 269.528992,135.628007 L269.528992,135.628006 Z" id="svg_4" stroke="#FF87D6" stroke-width="24"></path>
            <rect id="NET_RECT" fill="#FFFFFF" fill-rule="nonzero" x="320.00002" y="58" width="436.99998" height="244"></rect>
            <circle id="svg_5" fill="#FF87D6" fill-rule="nonzero" cx="269.529" cy="237.628" r="50.167"></circle>
            <polyline id="N" fill="#FF87D6" fill-rule="nonzero" points="335 73.5 335 288.5 385 288.5 385 188.5 420 288.5 470 288.5 470 73.5 420 73.5 420 173.5 385 73.5"></polyline>
            <polyline id="E" fill="#FF87D6" fill-rule="nonzero" points="490 73.5 490 288.5 600 288.5 600 238.5 540 238.5 540 206 590 206 590 156 540 156 540 123.5 600 123.5 600 73.5"></polyline>
            <polyline id="T" fill="#FF87D6" fill-rule="nonzero" points="610 73.5 610 123.5 650 123.5 650 288.5 710 288.5 710 123.5 750 123.5 750 73.5"></polyline>
        </g>
    </g>
</svg>