<svg id="svg" version="1.1" width="500" height="570" xmlns="http://www.w3.org/2000/svg" xmlns:xlink="http://www.w3.org/1999/xlink" style="display: block;"><g id="svgg"><path id="path0" d="M124.000 271.321 C 120.198 273.650,118.577 274.587,102.000 284.035 C 94.080 288.549,86.283 292.998,84.674 293.921 C 83.065 294.845,76.974 298.300,71.139 301.600 C 65.304 304.900,58.993 308.500,57.113 309.600 C 55.234 310.700,48.184 314.718,41.448 318.528 C 34.712 322.339,25.938 327.379,21.952 329.728 C 17.966 332.078,11.399 335.800,7.360 338.000 C -1.097 342.605,-1.025 342.495,3.200 344.400 C 4.960 345.194,6.400 346.148,6.400 346.521 C 6.400 346.895,6.794 347.200,7.277 347.200 C 7.759 347.200,9.109 347.871,10.277 348.692 C 11.444 349.512,15.370 351.725,19.000 353.610 C 22.630 355.495,25.600 357.404,25.600 357.852 C 25.600 358.300,25.829 358.437,26.110 358.157 C 26.390 357.877,27.616 358.357,28.833 359.224 C 30.051 360.091,31.411 360.800,31.857 360.800 C 32.302 360.800,32.787 361.109,32.933 361.488 C 33.080 361.866,34.820 362.950,36.800 363.896 C 41.667 366.224,46.598 369.011,47.732 370.075 C 48.244 370.556,49.774 371.409,51.132 371.972 C 52.489 372.534,53.600 373.310,53.600 373.697 C 53.600 374.084,53.870 374.344,54.200 374.275 C 55.061 374.096,59.057 376.067,62.984 378.609 C 64.845 379.814,66.735 380.800,67.184 380.800 C 67.633 380.800,68.000 381.111,68.000 381.491 C 68.000 381.872,69.620 382.801,71.600 383.557 C 73.580 384.314,75.200 385.227,75.200 385.588 C 75.200 385.948,76.190 386.637,77.400 387.117 C 78.610 387.598,81.760 389.254,84.400 390.796 C 87.040 392.339,90.640 394.369,92.400 395.308 C 94.160 396.247,95.780 397.244,96.000 397.524 C 96.585 398.267,101.098 400.303,101.800 400.140 C 102.130 400.063,102.400 400.305,102.400 400.679 C 102.400 401.052,103.840 402.006,105.600 402.800 C 107.360 403.594,108.800 404.484,108.800 404.779 C 108.800 405.074,110.600 406.128,112.800 407.123 C 115.000 408.117,116.800 409.261,116.800 409.665 C 116.800 410.069,117.290 410.400,117.888 410.400 C 118.487 410.400,120.197 411.223,121.688 412.229 C 123.180 413.235,125.660 414.565,127.200 415.184 C 128.740 415.803,130.180 416.559,130.400 416.864 C 130.992 417.686,135.897 420.576,140.000 422.521 C 141.980 423.459,143.793 424.522,144.028 424.883 C 144.263 425.243,145.703 426.103,147.228 426.793 C 150.804 428.412,157.084 432.067,157.600 432.829 C 157.820 433.154,159.260 434.007,160.800 434.725 C 162.340 435.442,165.400 437.091,167.600 438.389 C 169.800 439.687,172.860 441.390,174.400 442.174 C 175.940 442.958,177.654 444.028,178.208 444.551 C 178.763 445.074,180.473 445.957,182.008 446.512 C 183.544 447.067,184.800 447.812,184.800 448.167 C 184.800 448.522,186.240 449.389,188.000 450.093 C 189.760 450.798,191.200 451.653,191.200 451.994 C 191.200 452.335,193.203 453.427,195.650 454.420 L 200.100 456.227 204.250 454.316 C 206.533 453.265,208.876 451.954,209.457 451.403 C 210.039 450.851,210.973 450.400,211.533 450.400 C 212.094 450.400,213.140 449.750,213.859 448.956 C 214.577 448.162,216.433 447.015,217.983 446.407 C 219.532 445.799,220.800 444.987,220.800 444.603 C 220.800 444.220,221.160 444.128,221.600 444.400 C 222.040 444.672,222.400 444.513,222.400 444.047 C 222.400 443.581,222.891 443.200,223.492 443.200 C 224.093 443.200,225.533 442.454,226.692 441.542 C 227.851 440.630,228.806 440.180,228.812 440.542 C 228.819 440.904,229.089 440.806,229.412 440.323 C 229.736 439.841,230.943 438.941,232.095 438.323 C 238.787 434.735,241.243 433.332,241.600 432.893 C 241.820 432.622,243.440 431.680,245.200 430.800 C 246.960 429.920,248.760 428.911,249.200 428.557 C 250.162 427.785,254.351 425.496,259.000 423.202 C 260.870 422.280,262.400 421.211,262.400 420.826 C 262.400 420.442,263.431 419.901,264.692 419.624 C 265.952 419.347,267.662 418.495,268.492 417.731 C 269.321 416.966,271.260 415.848,272.800 415.247 C 274.340 414.645,275.960 413.759,276.400 413.277 C 276.840 412.794,278.460 411.749,280.000 410.953 C 281.540 410.157,284.600 408.472,286.800 407.209 C 289.000 405.946,292.330 404.127,294.200 403.168 C 296.070 402.209,297.600 401.176,297.600 400.873 C 297.600 400.569,298.856 399.867,300.392 399.312 C 301.927 398.757,303.637 397.870,304.192 397.342 C 305.431 396.161,309.780 394.070,310.600 394.260 C 310.930 394.337,311.200 394.057,311.200 393.637 C 311.200 393.218,312.730 392.127,314.600 391.212 C 316.470 390.298,319.440 388.662,321.200 387.577 C 322.960 386.492,326.020 384.834,328.000 383.892 C 329.980 382.950,331.852 381.752,332.161 381.230 C 332.469 380.709,334.167 379.805,335.934 379.222 C 337.701 378.639,338.995 377.916,338.809 377.615 C 338.624 377.314,340.165 376.270,342.236 375.294 C 344.306 374.318,347.800 372.451,350.000 371.145 C 352.200 369.839,355.260 368.197,356.800 367.495 C 358.340 366.794,359.780 365.949,360.000 365.618 C 360.383 365.040,364.104 362.905,370.304 359.706 C 371.897 358.884,373.380 357.934,373.600 357.596 C 373.820 357.257,375.260 356.412,376.800 355.718 C 378.340 355.024,381.040 353.546,382.800 352.435 C 384.560 351.323,387.620 349.600,389.600 348.607 C 391.580 347.613,393.619 346.406,394.132 345.925 C 394.644 345.444,396.174 344.591,397.532 344.028 C 401.097 342.551,401.481 342.859,383.044 332.400 C 373.737 327.120,360.875 319.800,354.461 316.134 C 348.048 312.467,337.580 306.493,331.200 302.858 C 296.693 283.197,290.113 279.429,282.745 275.116 C 275.244 270.724,272.000 269.494,272.000 271.039 C 272.000 271.391,270.744 272.133,269.208 272.688 C 267.673 273.243,265.963 274.140,265.408 274.682 C 264.268 275.795,259.646 278.431,254.600 280.847 C 252.730 281.742,251.200 282.789,251.200 283.174 C 251.200 283.558,250.169 284.099,248.908 284.376 C 247.648 284.653,245.913 285.535,245.054 286.335 C 244.194 287.136,242.166 288.271,240.546 288.856 C 238.925 289.442,237.600 290.192,237.600 290.523 C 237.600 290.854,236.070 291.873,234.200 292.788 C 232.330 293.702,229.360 295.330,227.600 296.405 C 223.419 298.960,218.805 301.524,213.935 304.000 C 211.771 305.100,209.877 306.279,209.727 306.620 C 209.450 307.248,204.402 309.562,203.457 309.494 C 203.175 309.473,202.624 310.029,202.232 310.728 C 201.360 312.287,199.503 312.381,198.640 310.911 C 198.288 310.311,196.380 309.040,194.400 308.085 C 190.481 306.195,185.830 303.662,179.600 300.023 C 177.400 298.737,174.430 297.122,173.000 296.432 C 171.570 295.743,170.400 294.881,170.400 294.517 C 170.400 294.154,168.942 293.375,167.161 292.787 C 165.379 292.199,163.669 291.324,163.361 290.842 C 163.052 290.360,161.720 289.495,160.400 288.920 C 159.080 288.344,155.047 286.102,151.439 283.937 C 147.830 281.772,144.500 280.000,144.039 280.000 C 143.577 280.000,143.196 279.730,143.191 279.400 C 143.186 279.070,141.656 278.085,139.791 277.212 C 137.926 276.339,136.143 275.259,135.829 274.812 C 135.515 274.365,134.975 273.974,134.629 273.943 C 133.501 273.841,129.226 271.643,128.143 270.609 C 126.846 269.371,127.315 269.291,124.000 271.321 " stroke="none" fill="#074b8e" fill-rule="evenodd"></path><path id="path1" d="M200.000 71.467 C 200.000 128.936,200.200 142.933,201.022 142.933 C 202.117 142.933,220.129 152.720,220.802 153.681 C 221.024 153.996,222.734 154.867,224.602 155.614 C 226.471 156.362,228.000 157.270,228.000 157.633 C 228.000 157.996,228.713 158.518,229.584 158.795 C 231.298 159.339,239.790 164.224,241.366 165.573 C 241.898 166.028,242.657 166.400,243.055 166.400 C 243.452 166.400,245.048 167.262,246.601 168.317 C 248.154 169.371,250.725 170.703,252.313 171.277 C 253.901 171.852,255.200 172.622,255.200 172.989 C 255.200 173.356,256.730 174.386,258.600 175.277 C 263.483 177.604,267.452 179.786,268.559 180.751 C 269.087 181.211,270.797 182.197,272.359 182.942 L 275.200 184.296 275.200 226.595 C 275.200 254.591,274.929 268.727,274.400 268.400 C 273.960 268.128,273.612 268.377,273.626 268.953 C 273.652 270.012,275.195 270.954,299.600 284.799 C 317.978 295.225,334.743 304.807,344.400 310.405 C 362.255 320.754,399.098 341.600,399.534 341.600 C 399.790 341.600,400.000 290.102,400.000 227.159 L 400.000 112.718 397.400 111.531 C 395.970 110.878,393.000 109.226,390.800 107.860 C 386.820 105.389,381.777 102.528,377.200 100.145 C 375.880 99.458,374.346 98.446,373.792 97.896 C 373.237 97.347,371.527 96.443,369.992 95.888 C 368.456 95.333,367.200 94.646,367.200 94.361 C 367.200 94.076,365.670 93.168,363.800 92.344 C 361.930 91.519,360.220 90.613,360.000 90.330 C 359.780 90.047,358.034 88.957,356.120 87.907 C 354.205 86.858,350.965 85.026,348.920 83.836 C 346.874 82.645,343.978 81.088,342.483 80.376 C 340.989 79.664,339.275 78.590,338.675 77.989 C 338.075 77.389,336.327 76.443,334.792 75.888 C 333.256 75.333,332.000 74.646,332.000 74.361 C 332.000 74.076,330.470 73.168,328.600 72.344 C 326.730 71.519,325.020 70.613,324.800 70.330 C 324.580 70.047,322.960 69.023,321.200 68.054 C 319.440 67.086,316.560 65.426,314.800 64.366 C 313.040 63.306,310.096 61.620,308.257 60.620 C 306.419 59.619,301.739 56.966,297.857 54.725 C 293.976 52.484,289.556 49.964,288.037 49.125 C 286.517 48.286,284.837 47.206,284.305 46.725 C 283.772 46.244,282.136 45.365,280.668 44.771 C 279.201 44.177,277.820 43.469,277.600 43.197 C 277.205 42.710,264.262 35.346,259.600 32.956 C 258.280 32.279,257.020 31.514,256.800 31.255 C 256.580 30.996,254.965 30.068,253.212 29.192 C 251.459 28.317,249.600 27.206,249.080 26.725 C 248.561 26.244,246.936 25.365,245.468 24.771 C 244.001 24.177,242.620 23.465,242.400 23.188 C 242.180 22.911,239.176 21.091,235.725 19.143 C 232.274 17.194,227.774 14.621,225.725 13.425 C 223.676 12.228,221.559 11.023,221.020 10.747 C 220.481 10.470,216.001 7.939,211.063 5.122 C 206.126 2.305,201.617 0.000,201.043 0.000 C 200.193 0.000,200.000 13.240,200.000 71.467 M120.600 272.458 C 119.390 273.114,118.400 273.820,118.400 274.026 C 118.400 274.798,119.664 274.314,121.600 272.800 C 123.977 270.940,123.621 270.818,120.600 272.458 M113.800 276.453 C 110.025 278.716,109.153 279.898,112.600 278.082 C 115.018 276.807,118.233 274.461,117.600 274.433 C 117.380 274.423,115.670 275.332,113.800 276.453 M106.800 280.455 C 105.480 281.140,104.040 282.077,103.600 282.538 C 103.160 282.999,104.330 282.609,106.200 281.672 C 108.070 280.734,109.600 279.795,109.600 279.584 C 109.600 279.032,109.456 279.077,106.800 280.455 M99.800 284.458 C 96.809 286.080,96.991 286.756,100.000 285.200 C 101.320 284.517,102.400 283.788,102.400 283.579 C 102.400 283.065,102.314 283.094,99.800 284.458 M93.400 288.054 C 91.750 288.926,90.400 289.817,90.400 290.035 C 90.400 290.254,91.840 289.698,93.600 288.800 C 95.360 287.902,96.800 286.995,96.800 286.784 C 96.800 286.260,96.794 286.263,93.400 288.054 M86.000 292.379 C 84.240 293.463,83.118 294.361,83.506 294.375 C 84.310 294.404,89.600 291.244,89.600 290.735 C 89.600 290.199,89.369 290.304,86.000 292.379 M77.800 296.892 C 74.215 299.188,74.539 299.570,78.400 297.600 C 81.409 296.065,82.370 295.183,81.000 295.213 C 80.670 295.221,79.230 295.976,77.800 296.892 M71.800 300.458 C 68.809 302.080,68.991 302.756,72.000 301.200 C 73.320 300.517,74.400 299.788,74.400 299.579 C 74.400 299.065,74.314 299.094,71.800 300.458 M65.400 304.054 C 63.750 304.926,62.400 305.817,62.400 306.035 C 62.400 306.254,63.840 305.698,65.600 304.800 C 67.360 303.902,68.800 302.995,68.800 302.784 C 68.800 302.260,68.794 302.263,65.400 304.054 M58.000 308.379 C 56.240 309.463,55.049 310.361,55.354 310.375 C 56.048 310.406,61.600 307.158,61.600 306.721 C 61.600 306.200,61.353 306.314,58.000 308.379 M50.600 312.453 C 48.730 313.574,47.200 314.658,47.200 314.862 C 47.200 315.458,53.441 312.104,53.993 311.211 C 54.704 310.061,54.413 310.167,50.600 312.453 M43.800 316.458 C 40.809 318.080,40.991 318.756,44.000 317.200 C 45.320 316.517,46.400 315.788,46.400 315.579 C 46.400 315.065,46.314 315.094,43.800 316.458 M38.200 319.658 C 35.209 321.280,35.391 321.956,38.400 320.400 C 39.720 319.717,40.800 318.988,40.800 318.779 C 40.800 318.265,40.714 318.294,38.200 319.658 M31.000 323.658 C 28.009 325.280,28.191 325.956,31.200 324.400 C 32.520 323.717,33.600 322.988,33.600 322.779 C 33.600 322.265,33.514 322.294,31.000 323.658 M21.200 329.259 C 15.111 332.729,10.956 335.726,15.200 333.588 C 18.596 331.877,28.000 326.235,28.000 325.909 C 28.000 325.397,27.831 325.480,21.200 329.259 M10.200 335.658 C 7.209 337.280,7.391 337.956,10.400 336.400 C 11.720 335.717,12.800 334.988,12.800 334.779 C 12.800 334.265,12.714 334.294,10.200 335.658 M3.000 339.658 C 0.009 341.280,0.191 341.956,3.200 340.400 C 4.520 339.717,5.600 338.988,5.600 338.779 C 5.600 338.265,5.514 338.294,3.000 339.658 " stroke="none" fill="#0f66c0" fill-rule="evenodd"></path><path id="path2" d="M194.870 1.626 C 193.148 2.485,191.140 3.730,190.407 4.394 C 189.674 5.057,188.591 5.600,188.000 5.600 C 187.409 5.600,186.358 6.106,185.663 6.724 C 184.968 7.342,181.520 9.378,178.000 11.248 C 174.480 13.118,171.336 15.042,171.012 15.524 C 170.689 16.006,170.419 16.104,170.412 15.743 C 170.406 15.381,169.834 15.651,169.143 16.343 C 168.451 17.034,167.421 17.600,166.853 17.600 C 166.285 17.600,164.468 18.675,162.815 19.988 C 161.162 21.302,159.490 22.179,159.099 21.938 C 158.708 21.696,158.190 22.016,157.947 22.649 C 157.704 23.282,155.997 24.465,154.153 25.278 C 152.309 26.091,150.620 26.978,150.400 27.249 C 150.180 27.520,148.470 28.410,146.600 29.225 C 144.730 30.041,143.200 30.969,143.200 31.288 C 143.200 31.607,141.580 32.486,139.600 33.243 C 137.620 33.999,136.000 34.902,136.000 35.251 C 136.000 35.599,134.560 36.520,132.800 37.296 C 131.040 38.073,129.600 38.957,129.600 39.261 C 129.600 39.734,127.308 40.740,125.426 41.092 C 125.110 41.152,124.174 41.780,123.347 42.489 C 122.519 43.198,120.347 44.437,118.521 45.243 C 116.694 46.049,115.200 46.957,115.200 47.261 C 115.200 47.565,114.570 48.022,113.800 48.276 C 113.030 48.531,110.240 50.006,107.600 51.554 C 104.960 53.102,101.360 55.138,99.600 56.078 C 97.840 57.018,95.860 58.225,95.200 58.761 C 94.540 59.298,92.740 60.211,91.200 60.792 C 89.660 61.372,88.039 62.241,87.598 62.723 C 87.157 63.206,85.537 64.312,83.998 65.181 C 75.957 69.727,72.928 71.340,70.200 72.532 C 68.550 73.253,67.200 74.104,67.200 74.424 C 67.200 74.744,66.030 75.468,64.600 76.032 C 63.170 76.597,61.280 77.685,60.400 78.449 C 59.520 79.214,57.360 80.579,55.600 81.483 C 49.245 84.745,45.929 86.539,42.000 88.843 C 39.800 90.133,36.560 91.903,34.800 92.777 C 33.040 93.650,31.960 94.387,32.400 94.414 C 32.840 94.441,31.940 95.045,30.400 95.756 C 28.860 96.468,27.330 96.994,27.000 96.925 C 26.670 96.856,26.400 97.128,26.400 97.529 C 26.400 97.929,24.870 99.020,23.000 99.953 C 21.130 100.886,17.800 102.731,15.600 104.054 C 13.400 105.376,10.430 106.990,9.000 107.640 C 7.570 108.290,6.400 109.177,6.400 109.611 C 6.400 110.045,6.059 110.310,5.641 110.200 C 5.224 110.090,3.785 110.720,2.444 111.600 L 0.005 113.200 0.002 227.362 L -0.000 341.524 7.800 337.047 C 12.090 334.585,22.980 328.361,32.000 323.216 C 41.020 318.071,54.880 310.154,62.800 305.622 C 70.720 301.090,78.640 296.573,80.400 295.584 C 82.160 294.595,88.460 291.002,94.400 287.600 C 100.340 284.198,106.640 280.613,108.400 279.633 C 110.160 278.652,114.778 275.994,118.663 273.725 C 122.548 271.456,125.968 269.600,126.263 269.600 C 126.558 269.600,126.704 250.353,126.586 226.828 L 126.373 184.055 128.986 182.716 C 130.424 181.979,131.780 181.147,132.000 180.866 C 132.220 180.586,133.930 179.681,135.800 178.856 C 137.670 178.032,139.200 177.101,139.200 176.787 C 139.200 176.474,140.820 175.599,142.800 174.843 C 144.780 174.086,146.400 173.192,146.400 172.855 C 146.400 172.518,147.750 171.628,149.400 170.878 C 154.411 168.597,159.309 165.910,159.870 165.134 C 160.161 164.730,161.660 163.762,163.200 162.982 C 164.740 162.203,167.800 160.507,170.000 159.214 C 172.200 157.921,175.350 156.255,177.000 155.510 C 178.650 154.766,180.000 153.891,180.000 153.566 C 180.000 153.240,181.529 152.362,183.398 151.614 C 185.266 150.867,186.976 149.976,187.198 149.635 C 187.573 149.057,190.880 147.145,197.304 143.794 L 200.000 142.387 200.000 71.194 C 200.000 14.755,199.793 0.007,199.000 0.032 C 198.450 0.049,196.591 0.767,194.870 1.626 " stroke="none" fill="#1685fc" fill-rule="evenodd"></path><path id="path3" d="" stroke="none" fill="#0000ff" fill-rule="evenodd"></path></g></svg>