<?xml version="1.0" encoding="UTF-8"?>
<svg width="635px" height="134px" viewBox="0 0 635 134" version="1.1" xmlns="http://www.w3.org/2000/svg" xmlns:xlink="http://www.w3.org/1999/xlink">
    <!-- Generator: Sketch 44.1 (41455) - http://www.bohemiancoding.com/sketch -->
    <title>Condor_logo</title>
    <desc>Created with Sketch.</desc>
    <defs></defs>
    <g id="Page-1" stroke="none" stroke-width="1" fill="none" fill-rule="evenodd">
        <g id="Condor_logo" transform="translate(-1.000000, 0.000000)" fill-rule="nonzero" fill="#FBAB18">
            <g id="g10" transform="translate(318.000000, 67.191250) scale(-1, 1) rotate(-180.000000) translate(-318.000000, -67.191250) translate(0.000000, 0.191250)">
                <path d="M233.035,10.69625 C199.81875,10.69625 185.29125,35.46375 185.6575,66.88625 C186.03,98.45125 204.56875,123.31875 236.62,123.31875 C250.5175,123.31875 259.98875,119.32 263.05125,117.905 L259.04375,103.77 C254.8025,105.65625 246.75125,108.00125 239.4425,108.0075 C225.4425,108.0075 209.19125,99.81125 209.0025,67.75875 C208.83125,38.53125 220.31125,26.01375 237.74375,26.01375 C246.22875,26.01375 254.245,29.07125 257.2975,30.72625 L261.7825,17.765 C257.06875,15.40875 247.41125,10.69625 233.035,10.69625" id="path22"></path>
                <path d="M298.65625,10.92875 C277.6875,10.92875 261.655,22.71625 261.655,53.34375 C261.655,83.975 277.6875,95.75125 298.65625,95.75875 C319.6225,95.75875 335.64,83.975 335.6475,53.34375 C335.64,22.71625 319.6225,10.93875 298.65625,10.92875 M298.885,83.51 C287.81625,83.51 282.63125,74.555 282.63125,53.34375 C282.63125,32.1325 287.5775,23.42625 298.64875,23.41875 C309.73375,23.41875 314.675,32.1425 314.675,53.34375 C314.675,74.54875 309.96125,83.51 298.885,83.51" id="path24"></path>
                <path d="M364.95375,94.39125 L366.265,85.24625 C372.755,93.87375 380.0225,96.0575 389.03125,96.0575 C409.37625,96.0575 412.87625,80.37875 412.87625,68.705 L412.87625,12.005 L393.20125,12.005 L393.20125,62.0325 C393.20125,69.37375 394.03375,82.7175 381.52375,82.7175 C367.18125,82.7175 365.845,63.20125 365.845,56.19625 L365.845,12.005 L346.17,12.005 L346.17,94.39125 L364.95375,94.39125" id="path26"></path>
                <path d="M493.6975,122.04875 L493.6975,12.07375 L476.185,12.07375 L475.52375,26.24375 C471.52125,19.24375 465.0075,10.40625 452.17375,10.40625 C432.99375,10.40625 423.81875,30.2475 423.81875,53.26875 C423.81875,83.28375 438.9975,96.1275 453.33625,96.1275 C467.3475,96.1275 472.5125,85.45 474.01625,82.11625 L474.01625,122.04875 L493.6975,122.04875 M459.0075,23.74625 C474.01625,23.74625 474.01625,48.7575 474.01625,53.59875 C474.01625,63.60625 472.8575,82.78375 459.5175,82.78375 C444.8325,82.78375 444.67125,58.60125 444.67125,53.59875 C444.67125,41.0875 446.5025,23.74625 459.0075,23.74625" id="path28"></path>
                <path d="M541.3625,10.905 C520.39625,10.905 504.36625,22.68875 504.36625,53.31125 C504.38,83.94625 520.39625,95.71625 541.3625,95.71625 C562.3325,95.71625 578.12375,83.94625 578.12375,53.31125 C578.12375,22.68875 562.3325,10.905 541.3625,10.905 M541.3625,83.47625 C530.28875,83.47625 525.10625,74.51125 525.10625,53.3175 C525.10625,32.1075 530.28875,23.385 541.3625,23.385 C552.4325,23.385 557.38375,32.1075 557.39375,53.31125 C557.38375,74.51125 552.4475,83.46875 541.3625,83.47625" id="path30"></path>
                <path d="M606.10625,94.42 L606.5975,73.91125 C613.10625,94.09 623.4475,95.75875 627.28625,95.75875 C630.455,95.75875 633.455,94.92375 635.125,94.42 L631.615,77.25 C630.1175,77.57625 627.78375,78.2475 625.28875,78.2475 C619.77875,78.2475 615.60875,74.91 613.7775,72.24375 C609.77375,66.735 608.10125,60.56875 608.10125,41.5525 L608.10125,12.0375 L588.42625,12.0375 L588.42625,94.42 L606.10625,94.42" id="path32"></path>
                <path d="M65.36,6.71 C32.0725,6.71 6.99,33.6625 6.99,67.04625 C6.99,100.42625 32.0725,127.6475 65.36,127.6475 C98.6475,127.6475 123.72625,100.42625 123.72625,67.04625 C123.72625,33.6625 98.6475,6.71 65.36,6.71 Z M65.36,133.75375 C28.65125,133.75375 0.99625,103.88125 0.99625,67.17375 C0.99625,30.4725 28.65125,0.83125 65.36,0.83125 C102.065,0.83125 129.72125,30.4725 129.72125,67.17375 C129.72125,103.88125 102.065,133.75375 65.36,133.75375 L65.36,133.75375 Z" id="path34"></path>
                <path d="M61.59125,78.48125 C63.47375,78.48125 94.02,78.48125 94.02,78.48125 L77.68125,65.30375 L83.69375,59.51875 L117.775,86.015 L67.415,86.02 C60.65875,86.02 58.1725,85.8775 56.58,85.4025 C55.04875,84.94125 53.0575,83.97375 51.98625,81.62625 C51.2,79.90125 51.16,76.8125 52.2775,74.89375 C53.82375,72.235 56.42875,69.88625 63.1325,62.81875 C56.50125,66.895 38.80875,78.47375 38.80875,78.47375 C38.80875,78.47375 42.73875,78.47 43.72625,78.47 C43.72625,80.355 43.71875,86.01875 43.71875,86.01875 L12.4875,86.01875 L104.415,26.22875 L104.415,36.74625 L61.11,76.05 C59.40625,77.625 59.96625,78.48125 61.59125,78.48125" id="path36"></path>
            </g>
        </g>
    </g>
</svg>