<?xml version="1.0" encoding="UTF-8" standalone="no"?>
<!-- Created with Inkscape (http://www.inkscape.org/) -->

<svg
   xmlns:dc="http://purl.org/dc/elements/1.1/"
   xmlns:cc="http://creativecommons.org/ns#"
   xmlns:rdf="http://www.w3.org/1999/02/22-rdf-syntax-ns#"
   xmlns:svg="http://www.w3.org/2000/svg"
   xmlns="http://www.w3.org/2000/svg"
   xmlns:sodipodi="http://sodipodi.sourceforge.net/DTD/sodipodi-0.dtd"
   xmlns:inkscape="http://www.inkscape.org/namespaces/inkscape"
   width="199.13"
   height="24.65"
   id="svg8166"
   version="1.1"
   inkscape:version="0.48.1 "
   sodipodi:docname="Neues Dokument 3">
  <defs
     id="defs8168">
    <clipPath
       clipPathUnits="userSpaceOnUse"
       id="clipPath4662">
      <path
         inkscape:connector-curvature="0"
         d="m 28.583,72.756 178.583,0 0,32.126 -178.583,0 0,-32.126 z"
         id="path4664" />
    </clipPath>
    <clipPath
       clipPathUnits="userSpaceOnUse"
       id="clipPath4670">
      <path
         inkscape:connector-curvature="0"
         d="m 35.613,99.277 157.704,0 0,-18.929 -157.704,0 0,18.929 z"
         id="path4672" />
    </clipPath>
    <clipPath
       clipPathUnits="userSpaceOnUse"
       id="clipPath4678">
      <path
         inkscape:connector-curvature="0"
         d="m 35.613,99.277 157.704,0 0,-18.929 -157.704,0 0,18.929 z"
         id="path4680" />
    </clipPath>
    <clipPath
       clipPathUnits="userSpaceOnUse"
       id="clipPath4686">
      <path
         inkscape:connector-curvature="0"
         d="m 29.317,140.464 168.4,0 0,-119 -168.4,0 0,119 z"
         id="path4688" />
    </clipPath>
  </defs>
  <sodipodi:namedview
     id="base"
     pagecolor="#ffffff"
     bordercolor="#666666"
     borderopacity="1.0"
     inkscape:pageopacity="0.0"
     inkscape:pageshadow="2"
     inkscape:zoom="4.3875494"
     inkscape:cx="99.980825"
     inkscape:cy="12.655801"
     inkscape:document-units="px"
     inkscape:current-layer="layer1"
     showgrid="false"
     fit-margin-top="0"
     fit-margin-left="0"
     fit-margin-right="0"
     fit-margin-bottom="0"
     inkscape:window-width="1024"
     inkscape:window-height="678"
     inkscape:window-x="-4"
     inkscape:window-y="-4"
     inkscape:window-maximized="1" />
  <metadata
     id="metadata8171">
    <rdf:RDF>
      <cc:Work
         rdf:about="">
        <dc:format>image/svg+xml</dc:format>
        <dc:type
           rdf:resource="http://purl.org/dc/dcmitype/StillImage" />
        <dc:title></dc:title>
      </cc:Work>
    </rdf:RDF>
  </metadata>
  <g
     inkscape:label="Ebene 1"
     inkscape:groupmode="layer"
     id="layer1"
     transform="translate(-275.72071,-439.03865)">
    <g
       transform="matrix(1.25,0,0,-1.25,232.34405,563.4539)"
       id="g4658">
      <g
         id="g4660"
         clip-path="url(#clipPath4662)">
        <g
           id="g4666">
          <g
             id="g4668"
             clip-path="url(#clipPath4670)">
            <g
               id="g4674">
              <g
                 id="g4676"
                 clip-path="url(#clipPath4678)">
                <g
                   id="g4682">
                  <g
                     id="g4684"
                     clip-path="url(#clipPath4686)">
                    <path
                       inkscape:connector-curvature="0"
                       d="m 49.12,95.523 c 0,0.616 0.499,1.115 1.115,1.115 0.616,0 1.115,-0.499 1.115,-1.115 0,-0.616 -0.499,-1.115 -1.115,-1.115 -0.616,0 -1.115,0.499 -1.115,1.115"
                       style="fill:#000000;fill-opacity:1;fill-rule:evenodd;stroke:none"
                       id="path4690" />
                    <path
                       inkscape:connector-curvature="0"
                       d="m 46.857,96.778 0.867,0.673 0.366,-0.333 -1.931,-1.642 c -1.863,1.418 -4.321,2.7 -6.777,2.001 -0.635,-0.212 -1.461,-0.72 -1.524,-1.482 0.042,-1.525 1.715,-1.8 2.752,-2.266 1.927,-0.593 3.854,-1.143 5.421,-2.604 0.699,-0.72 0.953,-1.694 0.762,-2.732 -0.233,-1.312 -1.44,-2.561 -2.731,-2.879 -2.626,-0.593 -5.146,0.275 -7.221,1.651 l -0.853,-0.881 -0.375,0.317 1.959,1.988 c 1.843,-1.292 3.906,-2.652 6.32,-2.419 0.403,0.127 0.805,0.339 1.059,0.741 0.36,0.551 0.233,1.313 -0.106,1.842 -1.8,2.033 -4.679,1.673 -6.776,3.134 -1.101,0.783 -1.884,1.948 -1.694,3.345 0.128,1.334 1.44,2.541 2.668,2.944 2.647,1.101 5.675,0.211 7.814,-1.398"
                       style="fill:#000000;fill-opacity:1;fill-rule:nonzero;stroke:none"
                       id="path4692" />
                    <path
                       inkscape:connector-curvature="0"
                       d="m 139.916,86.17 0.021,-0.042 c 1.715,-0.063 3.638,0.278 5.226,0.638 -0.066,-0.131 -0.558,-1.278 -0.558,-1.278 l -7.844,0 5.416,12.268 c -2.181,0 -3.733,0.216 -5.511,-0.886 l -0.952,-0.557 0.131,2.243 9.364,0 -5.293,-12.386 z"
                       style="fill:#000000;fill-opacity:1;fill-rule:nonzero;stroke:none"
                       id="path4694" />
                    <path
                       inkscape:connector-curvature="0"
                       d="m 75.7,85.488 -2.228,0 0,0.936 c -0.953,-0.931 -2.414,-1.376 -3.726,-0.889 -1.419,0.572 -2.139,2.054 -2.245,3.494 -0.169,1.609 0.445,3.176 1.906,4.044 0.889,0.508 2.329,0.677 3.239,0.042 l 0.826,-0.614 0,2.171 -0.816,0 0,0.635 3.044,0 0,-9.819 z m -2.832,6.643 c -0.318,0.276 -0.814,0.497 -1.259,0.455 -0.508,-0.106 -0.995,-0.487 -1.249,-0.953 -0.741,-1.44 -0.741,-3.684 0.317,-4.976 0.318,-0.275 0.678,-0.444 1.144,-0.402 0.677,0.085 1.249,0.762 1.439,1.397 0.376,1.436 0.561,3.288 -0.392,4.479"
                       style="fill:#000000;fill-opacity:1;fill-rule:nonzero;stroke:none"
                       id="path4696" />
                    <path
                       inkscape:connector-curvature="0"
                       d="m 119.277,95.307 0,-3.42 c 1.271,1.143 3.085,2.356 4.779,1.488 1.122,-0.698 0.962,-1.981 0.939,-3.33 -0.039,-2.175 -0.171,-4.573 -0.171,-4.573 l -2.144,0.016 c 0.021,1.948 0.134,3.795 -0.057,5.764 -0.106,0.402 -0.254,0.847 -0.656,1.059 -1.123,0.359 -1.948,-0.551 -2.69,-1.313 l 0,-5.526 -2.413,0 0,9.2 -0.881,0 0,0.635 3.294,0 z"
                       style="fill:#000000;fill-opacity:1;fill-rule:nonzero;stroke:none"
                       id="path4698" />
                    <path
                       inkscape:connector-curvature="0"
                       d="m 161.057,93.746 2.197,0 0.123,-0.635 -2.32,0 0.133,-7.623 -2.409,0 0.106,7.623 -1.502,0 0,0.635 1.502,0 0,0.344 c 0,0 0.576,0.215 1.085,0.45 0.688,0.317 1.085,0.609 1.085,0.609 l 0,-1.403 z"
                       style="fill:#000000;fill-opacity:1;fill-rule:nonzero;stroke:none"
                       id="path4700" />
                    <path
                       inkscape:connector-curvature="0"
                       d="m 107.75,92.866 c -0.032,-0.044 -0.654,-0.881 -0.654,-0.881 -1.058,0.826 -2.752,1.427 -4.086,0.876 -0.297,-0.169 -0.487,-0.466 -0.508,-0.783 -0.022,-0.381 0.19,-0.699 0.508,-0.89 1.651,-0.762 4.235,-0.614 4.7,-2.922 0.085,-0.91 -0.317,-1.672 -1.016,-2.223 -1.63,-1.249 -4.214,-0.953 -6.013,-0.339 -0.008,0.029 0.42,1.38 0.418,1.421 0.569,-0.369 1.109,-0.568 1.635,-0.743 0.974,-0.254 2.499,-0.614 3.198,0.402 0.085,0.212 0.169,0.508 0.021,0.72 -0.805,1.08 -2.266,0.889 -3.346,1.44 -0.72,0.296 -1.488,0.823 -1.678,1.648 -0.256,0.711 -0.121,1.719 0.429,2.311 1.694,1.546 4.592,0.937 6.392,-0.037"
                       style="fill:#000000;fill-opacity:1;fill-rule:nonzero;stroke:none"
                       id="path4702" />
                    <path
                       inkscape:connector-curvature="0"
                       d="m 115.594,92.696 -0.483,-0.711 c -0.663,0.94 -2.149,1.151 -2.764,0.876 -1.545,-0.974 -1.545,-3.006 -1.27,-4.658 0.191,-0.932 0.868,-2.075 1.927,-2.308 0.656,0 1.524,0.573 1.841,0.864 -0.043,0.011 0.794,-0.874 0.794,-0.874 0,0 -0.529,-0.397 -1.005,-0.498 -1.482,-0.572 -3.345,-0.339 -4.51,0.741 -1.256,1.165 -1.715,2.689 -1.418,4.319 0.254,1.398 1.566,2.711 2.922,3.092 1.334,0.36 2.95,0.067 3.966,-0.843"
                       style="fill:#000000;fill-opacity:1;fill-rule:nonzero;stroke:none"
                       id="path4704" />
                    <path
                       inkscape:connector-curvature="0"
                       d="m 191.03,92.247 c 0.063,0.487 0.275,1.038 0.805,1.207 0.36,0.106 0.783,0 1.079,-0.212 0.255,-0.211 0.339,-0.508 0.403,-0.804 -0.021,-0.487 -0.318,-0.911 -0.762,-1.08 -0.276,-0.085 -0.636,-0.042 -0.89,0.021 0.508,-1.164 0.699,-2.922 0.021,-4.108 -0.804,-1.397 -2.244,-2.307 -3.811,-2.371 -0.572,-0.063 -1.249,-0.106 -1.524,-0.678 0,-0.169 0.148,-0.338 0.317,-0.402 1.228,-0.169 2.88,0.445 3.642,-0.826 0.212,-0.381 0.127,-0.91 -0.085,-1.27 -0.953,-1.27 -2.773,-1.376 -4.192,-0.974 -0.551,0.191 -1.023,0.557 -1.567,1.016 l 0.836,0.652 c 0.783,-0.741 1.895,-1.329 2.975,-0.969 0.254,0.084 0.509,0.296 0.593,0.571 0.064,0.339 -0.084,0.636 -0.381,0.784 -1.143,0.402 -3.452,-0.386 -3.43,1.08 -0.021,0.296 0.085,0.571 0.296,0.741 0.212,0.19 0.445,0.296 0.699,0.402 -1.461,0.508 -2.901,1.99 -3.049,3.599 -0.254,1.906 0.635,3.685 2.35,4.574 1.588,0.805 3.875,0.635 5.251,-0.551 0.149,-0.105 0.276,-0.254 0.424,-0.402 m -1.884,-0.487 c -0.276,0.424 -0.72,0.868 -1.165,1.059 -0.381,0.127 -0.847,0.063 -1.165,-0.127 -1.249,-0.826 -1.524,-2.245 -1.503,-3.663 0.106,-1.292 0.487,-2.753 1.821,-3.282 0.72,-0.191 1.401,0.111 1.821,0.677 1.183,1.597 1.141,3.874 0.191,5.336"
                       style="fill:#000000;fill-opacity:1;fill-rule:nonzero;stroke:none"
                       id="path4706" />
                    <path
                       inkscape:connector-curvature="0"
                       d="m 50.985,93.746 c 0,0 -0.532,-5.042 0.064,-6.877 0.191,-0.339 0.529,-0.551 0.953,-0.466 0.847,0.254 1.609,0.762 2.287,1.355 l 0,5.353 -1.271,0 0,0.635 3.684,0 0,-8.253 -2.413,0 0,1.27 c -0.466,-0.169 -0.953,-0.614 -1.461,-0.804 -1.059,-0.466 -2.499,-1.186 -3.6,-0.318 -0.805,1.037 -0.783,2.414 -0.826,3.769 -0.021,1.249 0.212,2.515 0.318,3.701 l -1.228,0 -0.021,0.635 3.514,0 z"
                       style="fill:#000000;fill-opacity:1;fill-rule:nonzero;stroke:none"
                       id="path4708" />
                    <path
                       inkscape:connector-curvature="0"
                       d="m 181.49,92.581 c 0.339,-0.677 0.445,-1.561 0.424,-2.408 -0.085,-1.673 0.148,-3.033 0,-4.685 -0.699,-0.063 -2.382,0 -2.382,0 0,0 0.344,3.986 0.026,6.061 -0.085,0.297 -0.534,0.55 -0.83,0.677 -1.101,0.212 -1.969,-0.572 -2.689,-1.355 l 0,-5.383 -2.33,0 0,7.623 -0.926,0 0,0.635 3.256,0 0,-1.922 c 1.122,1.058 2.541,2.197 4.15,1.922 0.466,-0.127 1.068,-0.678 1.301,-1.165"
                       style="fill:#000000;fill-opacity:1;fill-rule:nonzero;stroke:none"
                       id="path4710" />
                    <path
                       inkscape:connector-curvature="0"
                       d="m 156.584,93.746 0,-8.258 -2.408,0 0,7.623 -1.217,0 0,0.635 3.625,0 z"
                       style="fill:#000000;fill-opacity:1;fill-rule:nonzero;stroke:none"
                       id="path4712" />
                    <path
                       inkscape:connector-curvature="0"
                       d="m 54.189,95.523 c 0,0.616 0.499,1.115 1.115,1.115 0.616,0 1.115,-0.499 1.115,-1.115 0,-0.616 -0.499,-1.115 -1.115,-1.115 -0.616,0 -1.115,0.499 -1.115,1.115"
                       style="fill:#000000;fill-opacity:1;fill-rule:evenodd;stroke:none"
                       id="path4714" />
                    <path
                       inkscape:connector-curvature="0"
                       d="m 154.249,95.523 c 0,0.616 0.499,1.115 1.115,1.115 0.616,0 1.115,-0.499 1.115,-1.115 0,-0.616 -0.499,-1.115 -1.115,-1.115 -0.616,0 -1.115,0.499 -1.115,1.115"
                       style="fill:#000000;fill-opacity:1;fill-rule:evenodd;stroke:none"
                       id="path4716" />
                    <path
                       inkscape:connector-curvature="0"
                       d="m 88.666,93.746 c 0,0 -0.532,-5.042 0.064,-6.877 0.191,-0.339 0.529,-0.551 0.953,-0.466 0.847,0.254 1.609,0.762 2.287,1.355 l 0,5.353 -1.271,0 0,0.635 3.684,0 0,-8.253 -2.413,0 0,1.27 c -0.466,-0.169 -0.953,-0.614 -1.461,-0.804 -1.059,-0.466 -2.499,-1.186 -3.6,-0.318 -0.805,1.037 -0.783,2.414 -0.826,3.769 -0.021,1.249 0.212,2.515 0.318,3.701 l -1.228,0 -0.021,0.635 3.514,0 z"
                       style="fill:#000000;fill-opacity:1;fill-rule:nonzero;stroke:none"
                       id="path4718" />
                    <path
                       inkscape:connector-curvature="0"
                       d="m 165.865,93.746 c 0,0 -0.533,-5.042 0.064,-6.877 0.19,-0.339 0.529,-0.551 0.953,-0.466 0.847,0.254 1.609,0.762 2.287,1.355 l 0,5.353 -1.271,0 0,0.635 3.684,0 0,-8.253 -2.413,0 0,1.27 c -0.466,-0.169 -0.954,-0.614 -1.462,-0.804 -1.058,-0.466 -2.498,-1.186 -3.599,-0.318 -0.805,1.037 -0.784,2.414 -0.826,3.769 -0.021,1.249 0.212,2.515 0.318,3.701 l -1.228,0 -0.022,0.635 3.515,0 z"
                       style="fill:#000000;fill-opacity:1;fill-rule:nonzero;stroke:none"
                       id="path4720" />
                    <path
                       inkscape:connector-curvature="0"
                       d="m 99.043,93.746 1.694,0 0,-0.635 -1.694,0 0.132,-7.623 -2.409,0 0.106,7.623 -1.694,0 0,0.635 1.694,0 0,0.344 c 0,0 0.576,0.215 1.085,0.45 0.689,0.317 1.086,0.609 1.086,0.609 l 0,-1.403 z"
                       style="fill:#000000;fill-opacity:1;fill-rule:nonzero;stroke:none"
                       id="path4722" />
                    <path
                       inkscape:connector-curvature="0"
                       d="m 66.239,85.488 -2.228,0 0,0.936 c -0.952,-0.931 -2.413,-1.376 -3.726,-0.889 -1.419,0.572 -2.139,2.054 -2.245,3.494 -0.169,1.609 0.445,3.176 1.906,4.044 0.889,0.508 2.329,0.677 3.24,0.042 l 0.825,-0.614 0,2.171 -0.816,0 0,0.635 3.044,0 0,-9.819 z m -2.832,6.643 c -0.317,0.276 -0.814,0.497 -1.259,0.455 -0.508,-0.106 -0.995,-0.487 -1.249,-0.953 -0.741,-1.44 -0.741,-3.684 0.317,-4.976 0.318,-0.275 0.678,-0.444 1.144,-0.402 0.677,0.085 1.249,0.762 1.44,1.397 0.375,1.436 0.56,3.288 -0.393,4.479"
                       style="fill:#000000;fill-opacity:1;fill-rule:nonzero;stroke:none"
                       id="path4724" />
                    <path
                       inkscape:connector-curvature="0"
                       d="m 152.985,91.655 -4.976,-4.288 c 0.185,-0.529 0.593,-1.154 1.27,-1.323 1.112,-0.185 2.038,0.281 2.674,1.085 l 0.661,-0.714 c -1.122,-1.207 -2.937,-1.621 -4.504,-1.282 -1.376,0.317 -2.578,1.647 -2.959,3.002 -0.488,1.694 -0.069,3.477 1.287,4.578 1.185,1.016 3.164,1.499 4.562,0.715 0.635,-0.339 1.429,-0.979 1.985,-1.773 m -1.429,-0.053 c -0.212,0.582 -0.768,1.218 -1.456,1.403 -0.582,0.185 -1.312,-0.038 -1.757,-0.504 -1.164,-1.08 -1.128,-2.381 -0.758,-4.234 l 3.971,3.335 z"
                       style="fill:#000000;fill-opacity:1;fill-rule:nonzero;stroke:none"
                       id="path4726" />
                    <path
                       inkscape:connector-curvature="0"
                       d="m 133.97,91.655 -4.976,-4.288 c 0.185,-0.529 0.593,-1.154 1.271,-1.323 1.111,-0.185 2.038,0.281 2.673,1.085 l 0.661,-0.714 c -1.122,-1.207 -2.937,-1.621 -4.504,-1.282 -1.376,0.317 -2.578,1.647 -2.959,3.002 -0.487,1.694 -0.068,3.477 1.287,4.578 1.185,1.016 3.164,1.499 4.562,0.715 0.635,-0.339 1.429,-0.979 1.985,-1.773 m -1.429,-0.053 c -0.212,0.582 -0.768,1.218 -1.456,1.403 -0.582,0.185 -1.312,-0.038 -1.757,-0.504 -1.164,-1.08 -1.128,-2.381 -0.757,-4.234 l 3.97,3.335 z"
                       style="fill:#000000;fill-opacity:1;fill-rule:nonzero;stroke:none"
                       id="path4728" />
                    <path
                       inkscape:connector-curvature="0"
                       d="m 85.059,91.655 -4.976,-4.288 c 0.186,-0.529 0.593,-1.154 1.271,-1.323 1.111,-0.185 2.038,0.281 2.673,1.085 l 0.662,-0.714 c -1.123,-1.207 -2.938,-1.621 -4.504,-1.282 -1.377,0.317 -2.579,1.647 -2.96,3.002 -0.487,1.694 -0.068,3.477 1.287,4.578 1.186,1.016 3.165,1.499 4.562,0.715 0.635,-0.339 1.429,-0.979 1.985,-1.773 M 83.63,91.602 c -0.212,0.582 -0.768,1.218 -1.456,1.403 -0.582,0.185 -1.312,-0.038 -1.756,-0.504 -1.165,-1.08 -1.129,-2.381 -0.758,-4.234 l 3.97,3.335 z"
                       style="fill:#000000;fill-opacity:1;fill-rule:nonzero;stroke:none"
                       id="path4730" />
                  </g>
                </g>
              </g>
            </g>
          </g>
        </g>
      </g>
    </g>
  </g>
</svg>
