<?xml version="1.0" encoding="UTF-8"?>
<svg width="263px" height="54px" viewBox="0 0 263 54" version="1.1" xmlns="http://www.w3.org/2000/svg" xmlns:xlink="http://www.w3.org/1999/xlink">
    <!-- Generator: Sketch 44.1 (41455) - http://www.bohemiancoding.com/sketch -->
    <title>path0</title>
    <desc>Created with Sketch.</desc>
    <defs></defs>
    <g id="Page-1" stroke="none" stroke-width="1" fill="none" fill-rule="evenodd">
        <path d="M127.6,9.133 C127.6,18.884 127.924,18.145 124.166,16.952 C107.792,11.752 95.199,26.676 101.594,43.701 C105.138,53.136 116.843,56.915 126.189,51.641 L128.364,50.413 L131.553,52.048 C133.307,52.948 134.935,53.564 135.171,53.418 C135.469,53.234 135.6,45.184 135.6,26.976 L135.6,0.8 L131.6,0.8 L127.6,0.8 L127.6,9.133 M146.73,1.485 C144.505,2.866 144.117,6.023 145.924,8.045 C149.148,11.654 155.236,8.462 153.958,3.833 C153.22,1.162 149.303,-0.111 146.73,1.485 M0.097,28.088 L0.2,53.4 L4,53.4 L7.8,53.4 L7.904,34.7 C7.961,24.415 8.141,16.01 8.304,16.023 C8.467,16.035 9.175,17.25 9.877,18.723 C10.579,20.195 12.033,23.02 13.109,25 C16.219,30.726 18.346,34.69 20.729,39.2 C23.238,43.947 23.275,43.985 25.224,43.994 C27.463,44.004 28.269,42.701 40.257,19.7 C41.317,17.665 42.324,16 42.493,16 C42.662,16 42.8,24.467 42.8,34.814 L42.8,53.629 L46.7,53.514 L50.6,53.4 L50.703,28.1 L50.806,2.8 L45.503,2.805 L40.2,2.81 L36.472,10.105 C34.422,14.117 31.129,20.595 29.154,24.5 C25.385,31.952 25.135,32.271 24.457,30.5 C24.225,29.895 20.982,23.46 17.249,16.2 L10.462,3 L5.228,2.888 L-0.006,2.777 L0.097,28.088 M70.303,16.947 C54.503,22.65 54.645,48.018 70.505,53.035 C76.071,54.795 83.768,53.941 89.075,50.973 C92.265,49.189 92.299,49.095 90.779,46.288 C89.375,43.696 89.369,43.693 87.103,44.849 C77.315,49.843 66.865,46.367 66.809,38.1 L66.8,36.8 L79.973,36.8 C95.197,36.8 93.873,37.247 93.406,32.267 C92.224,19.677 81.833,12.786 70.303,16.947 M218.541,16.934 C217.188,17.449 215.49,18.244 214.767,18.702 L213.452,19.535 L210.276,17.938 C208.434,17.012 206.951,16.489 206.746,16.694 C206.548,16.892 206.438,25.061 206.496,35.224 L206.6,53.4 L210.4,53.4 L214.2,53.4 L214.4,40.132 L214.6,26.863 L215.6,25.779 C219.002,22.09 226.045,21.761 228.903,25.158 C230.633,27.213 230.795,28.619 230.798,41.514 L230.8,53.629 L234.7,53.514 L238.6,53.4 L238.8,40.132 L239,26.863 L240,25.779 C243.389,22.103 250.445,21.761 253.283,25.134 C254.932,27.094 255.2,29.456 255.2,42.034 L255.2,53.629 L259.1,53.514 L263,53.4 L262.98,39.8 C262.958,24.171 262.76,23.02 259.54,19.739 C254.7,14.807 244.503,14.721 238.142,19.559 L236.084,21.124 L234.806,19.806 C231.209,16.095 224.062,14.833 218.541,16.934 M145.467,16.667 C145.08,17.054 145.151,52.503 145.54,53.116 C145.778,53.492 146.89,53.6 149.633,53.516 L153.4,53.4 L153.504,34.9 L153.608,16.4 L149.671,16.4 C147.505,16.4 145.613,16.52 145.467,16.667 M162.877,30.5 C163.013,46.064 163.045,46.273 165.804,49.537 C170.145,54.674 180.328,55.56 187.5,51.426 L189.2,50.446 L192.399,52.047 C194.158,52.928 195.778,53.537 195.999,53.401 C196.258,53.241 196.4,46.629 196.4,34.776 L196.4,16.4 L192.425,16.4 L188.45,16.4 L188.325,29.574 L188.2,42.749 L187,44.025 C182.921,48.363 174.377,48.349 171.822,44 C171.046,42.677 170.993,41.875 170.875,29.5 L170.75,16.4 L166.752,16.4 L162.753,16.4 L162.877,30.5 M80.617,23.152 C83.312,24.376 85.79,28.284 85.067,30.17 C84.798,30.871 67.465,31.152 67.039,30.462 C66.121,28.978 69.862,23.956 72.6,22.996 C74.888,22.194 78.67,22.268 80.617,23.152 M123.582,23.937 C127.299,25.748 127.4,26.035 127.4,34.799 C127.4,41.829 127.343,42.417 126.561,43.47 C123.209,47.988 115.45,48.541 111.455,44.545 C108.154,41.245 107.191,33.033 109.544,28.253 C112.196,22.867 117.831,21.134 123.582,23.937" id="path0" fill="#000000"></path>
    </g>
</svg>