<svg height="96" width="207" xmlns="http://www.w3.org/2000/svg">
  <g id="blockInfoImg" stroke="#0063c3" stroke-width="0" fill="none" transform="translate(-6) rotate(90 48,48)">
    <path id="hexagon" d="M0 48L24 90L72 90L96 48L72 6L24 6Z M30 48L39 64L57 64L66 48L57 32L39 32Z" fill="none" fill-rule="evenodd"></path>
    <path id="hexUpLeft" d="M0 48L24 90L72 90L57 64L39 64L30 48Z" fill="#0082ff"></path>
    <path id="hexUpRight" d="M0 48L24 6L72 6L57 32L39 32L30 48Z" fill="#0063c3"></path>
    <path id="hexDown" d="M72 6L96 48L72 90L57 64L66 48L57 32Z" fill="#004990"></path>
  </g>
  <text id="blockInfoText" x="87" y="65" fill="#0063c3" font-family="-apple-system,BlinkMacSystemFont,'Segoe UI',Roboto,Oxygen,Ubuntu,Cantarell,'Open Sans','Helvetica Neue',sans-serif" font-size="53px" font-weight="400">INFO</text>
</svg>